PathFileType	4	(X/Y/Z)	D:/Dropbox/2017/2017-10 SOFAMEA OpenSim seminar/OpenSim workshop LucaClement/Hands-on_Paris2017_Luca/For Participants/3_Scaling/transformed_Static_for_scaling.trc	
DataRate	CameraRate	NumFrames	NumMarkers	Units	OrigDataRate	OrigDataStartFrame	OrigNumFrames	
120.00	120.00	4	47	mm	120.00	436	697	
Frame#	Time	Sternum			Neck			RShoulder			LShoulder			Xiphoid			Thoracic			RAsis			LAsis			RPsis			LPsis			LThighSuperior			LThighInferior			LThighLateral			LKneeLateral			LKneeMedial			LShankSuperior			LShankInferior			LShankLateral			LAnkleLateral			LAnkleMedial			RThighSuperior			RThighInferior			RThighLateral			RKneeLateral			RShankSuperior			RShankInferior			RShankLateral			RAnkleLateral			RankleMedial			RHeel			RToe			RMidfootMedial			RMidfootLateral			RHindfoot			RMidfootSuperior			RToeMedial			RToeLateral			LHeel			LToe			LMidfootMedial			LMidfootLateral			LHindfoot			LMidfootSuperior			LToeMedial			LToeLateral			RKneeMedial			Sacral			
		X1	Y1	Z1	X2	Y2	Z2	X3	Y3	Z3	X4	Y4	Z4	X5	Y5	Z5	X6	Y6	Z6	X7	Y7	Z7	X8	Y8	Z8	X9	Y9	Z9	X10	Y10	Z10	X11	Y11	Z11	X12	Y12	Z12	X13	Y13	Z13	X14	Y14	Z14	X15	Y15	Z15	X16	Y16	Z16	X17	Y17	Z17	X18	Y18	Z18	X19	Y19	Z19	X20	Y20	Z20	X21	Y21	Z21	X22	Y22	Z22	X23	Y23	Z23	X24	Y24	Z24	X25	Y25	Z25	X26	Y26	Z26	X27	Y27	Z27	X28	Y28	Z28	X29	Y29	Z29	X30	Y30	Z30	X31	Y31	Z31	X32	Y32	Z32	X33	Y33	Z33	X34	Y34	Z34	X35	Y35	Z35	X36	Y36	Z36	X37	Y37	Z37	X38	Y38	Z38	X39	Y39	Z39	X40	Y40	Z40	X41	Y41	Z41	X42	Y42	Z42	X43	Y43	Z43	X44	Y44	Z44	X45	Y45	Z45	X46	Y46	Z46	X47	Y47	Z47	

436	3.625	533.28284	1456.86145	-467.22980	378.81613	1572.30762	-457.13022	428.99344	1555.34802	-302.22363	405.59866	1553.66357	-602.86725	560.58960	1303.34802	-457.21033	290.53983	1351.83276	-452.36331	488.36960	1039.95251	-323.78500	501.96371	1045.16272	-604.20691	302.64563	1067.39258	-413.95737	301.75558	1066.93164	-516.34644	444.06372	874.01880	-659.16357	469.77945	643.16779	-640.69940	543.75482	747.67224	-587.44000	474.28894	558.17865	-643.39136	467.66043	564.98340	-501.20108	465.62753	405.91443	-661.27856	429.92020	205.03033	-643.41986	488.31180	294.47995	-602.44781	410.83377	124.44700	-643.62457	439.68912	125.33191	-558.09955	424.79184	846.59601	-287.28485	440.18317	610.41675	-311.04114	528.99487	764.53503	-340.01837	432.90747	545.51685	-309.89758	420.19052	448.83337	-304.26773	413.77454	194.51508	-335.92346	479.93137	318.84848	-367.87936	404.99915	120.01881	-339.46066	436.87219	137.46143	-425.78546	332.04562	79.70313	-394.48819	646.32385	62.71980	-351.67343	553.09180	49.27856	-414.61340	541.17279	43.55151	-295.49683	486.53561	43.67382	-309.72620	514.56665	110.85390	-364.49832	597.99121	50.18129	-403.95840	588.84003	48.38677	-300.97443	341.52475	83.22066	-590.95496	648.83014	73.95056	-642.74066	555.59430	50.75718	-578.40393	541.91681	47.19158	-694.83746	487.88013	46.54997	-680.07312	523.53601	112.65031	-625.54810	597.38135	51.51872	-586.81061	586.19696	56.91571	-690.10602	476.80469	543.25452	-446.13638	302.20062	1067.16211	-465.15192 
437	3.633	533.25922	1456.81079	-467.27463	378.84381	1572.28687	-457.15536	428.99527	1555.37598	-302.26465	405.59976	1553.65942	-602.88458	560.57794	1303.37488	-457.23196	290.57632	1351.84216	-452.45834	488.36945	1039.95276	-323.78421	502.00070	1045.13623	-604.14429	302.65341	1067.39282	-413.98291	301.75174	1066.96399	-516.33911	444.12228	874.01270	-659.16663	469.79016	643.16138	-640.68188	543.75494	747.65576	-587.41608	474.32584	558.15991	-643.27527	467.67007	564.99359	-501.18799	465.61874	405.88223	-661.26239	429.63611	204.87045	-643.48871	488.31680	294.47125	-602.41223	410.83078	124.46600	-643.64758	439.67868	125.32803	-558.11743	424.75824	846.60516	-287.25589	440.16525	610.41095	-311.02536	528.96149	764.54742	-340.00668	432.86191	545.52466	-309.88245	420.17447	448.83932	-304.28250	413.80768	194.50443	-335.94739	479.89807	318.83432	-367.90701	405.00586	120.02042	-339.48056	436.86908	137.46439	-425.78391	331.95523	79.58374	-394.88120	646.30133	62.74622	-351.64444	553.02020	49.43630	-414.76675	541.15698	43.48386	-295.55264	486.52527	43.67246	-309.73279	514.47791	110.81232	-364.41153	597.97412	50.17995	-403.95804	588.83710	48.37876	-301.00049	341.50949	83.21998	-590.94708	648.82959	73.95049	-642.74237	555.59698	50.76001	-578.40765	541.90381	47.19597	-694.82104	487.85223	46.55113	-680.05139	523.55530	112.68587	-625.53601	597.32068	51.57339	-586.88678	586.22058	56.92918	-690.12762	476.80331	543.25385	-446.13562	302.20258	1067.17847	-465.16101 
438	3.642	533.27576	1456.85315	-467.30255	378.83456	1572.30359	-457.21048	429.00760	1555.38757	-302.33078	405.62918	1553.64551	-602.93274	560.56427	1303.36768	-457.21747	290.57892	1351.81873	-452.45886	488.35129	1039.96301	-323.79379	501.99991	1045.13330	-604.13727	302.65472	1067.39221	-413.98499	301.74805	1066.95972	-516.33765	444.13776	874.00995	-659.15228	469.80048	643.15613	-640.66272	543.84784	747.65833	-587.37823	474.38071	558.16742	-643.29700	467.64731	564.99585	-501.18744	465.61566	405.87869	-661.25891	429.91589	204.99197	-643.34497	488.29297	294.46759	-602.39661	410.79730	124.44120	-643.62512	439.67673	125.32899	-558.11847	424.74503	846.58685	-287.29233	440.15085	610.41351	-311.05099	528.92810	764.54980	-339.94708	432.87509	545.52368	-309.91507	420.07938	448.91913	-304.26117	413.79001	194.51071	-335.95657	479.90149	318.80344	-367.92422	405.00046	120.04207	-339.47864	436.86911	137.46336	-425.78369	331.94772	79.55865	-394.89493	646.29346	62.76065	-351.60739	552.74768	49.48724	-414.71643	541.12817	43.40523	-295.59872	486.53717	43.65021	-309.76160	514.50635	110.84182	-364.44073	597.96692	50.17440	-403.93869	588.89142	48.39297	-301.01917	341.50977	83.22128	-590.94476	648.81659	73.95072	-642.72723	555.59448	50.75558	-578.40668	541.91705	47.19248	-694.83728	487.83472	46.52449	-680.03033	523.52991	112.67855	-625.55347	597.31464	51.57957	-586.88477	586.21277	56.84244	-690.00983	476.77606	543.25079	-446.13361	302.20139	1067.17603	-465.16132 
439	3.650	533.24902	1456.80164	-467.34903	378.81537	1572.29993	-457.22461	428.98578	1555.41016	-302.39044	405.60724	1553.63599	-602.96497	560.57703	1303.38940	-457.25027	290.59470	1351.81995	-452.48532	488.33588	1039.95996	-323.75479	502.01477	1045.10718	-604.10724	302.61615	1067.41748	-413.97830	301.81308	1066.95544	-516.38501	444.13699	874.00275	-659.12299	469.80087	643.13367	-640.65656	543.77850	747.66272	-587.36652	474.35596	558.17261	-643.25580	467.64325	564.99304	-501.19293	465.65356	405.88159	-661.24072	429.61859	204.84740	-643.44299	488.31268	294.48041	-602.38098	410.83145	124.44576	-643.62219	439.68503	125.34576	-558.09113	424.73062	846.59747	-287.29965	440.10611	610.41968	-311.03854	528.91547	764.56256	-339.95828	432.85086	545.54596	-309.93127	420.09293	448.88388	-304.26553	413.77084	194.51559	-335.93771	479.89642	318.81271	-367.91083	404.99805	120.02872	-339.47681	436.89856	137.46155	-425.76355	331.95520	79.57423	-394.89240	646.32965	62.71191	-351.65891	552.85394	49.62988	-414.92773	541.17419	43.57785	-295.52380	486.52856	43.64599	-309.74283	515.08588	110.27357	-365.41257	597.97314	50.17871	-403.95715	588.83636	48.39829	-300.98499	341.50690	83.23042	-590.93109	648.82001	73.94123	-642.73572	555.58044	50.74239	-578.44049	541.91895	47.19367	-694.83972	487.83823	46.52099	-680.03473	523.55560	112.68676	-625.53680	597.37610	51.55349	-586.80670	586.17212	56.88760	-690.08069	476.75793	543.27881	-446.11319	302.21460	1067.18652	-465.18164 
